<svg xmlns="http://www.w3.org/2000/svg" width="87" height="50" viewBox="0 0 87 50" fill="none">
    <path d="M40.5 21L46.5 8.5L53 21L47 34L40.5 21Z" fill="white" />
    <path d="M9 12L2 25.5L6.5 34L13 20.5L9 12Z" fill="white" />
    <path d="M34 8L27 21L33.5 34.5H46.5L34 8Z" fill="white" />
    <path d="M7 34.5L20 8L33.5 7.5L20 34.5H7Z" fill="white" />
    <path d="M20 7.5L19 3.5L32 0L33 4L20 7.5Z" fill="white" />
    <path d="M74 34L67 21L74 7.5H87L74 34Z" fill="white" />
    <path d="M60 7.5H47L60 34.5H73.5L60 7.5Z" fill="white" />
    <path
        d="M1.504 47.048C1.09333 47.064 0.888 46.9227 0.888 46.624C0.888 46.496 0.922667 46.4 0.992 46.336C1.056 46.2667 1.16 46.2267 1.304 46.216L1.56 46.2C1.77867 46.1893 1.944 46.12 2.056 45.992C2.168 45.864 2.224 45.6693 2.224 45.408V41.832C2.224 41.6773 2.26933 41.5547 2.36 41.464C2.456 41.368 2.58133 41.32 2.736 41.32C2.896 41.32 3.02133 41.368 3.112 41.464C3.208 41.5547 3.256 41.6773 3.256 41.832V45.408C3.256 46.416 2.75733 46.9573 1.76 47.032L1.504 47.048ZM9.58719 46.384C9.61919 46.4533 9.63519 46.5227 9.63519 46.592C9.63519 46.7147 9.58452 46.8187 9.48319 46.904C9.38719 46.9893 9.27519 47.032 9.14719 47.032C9.06185 47.032 8.98185 47.0107 8.90719 46.968C8.83252 46.92 8.77385 46.848 8.73119 46.752L8.25119 45.68H5.43519L4.95519 46.752C4.91252 46.848 4.85385 46.92 4.77919 46.968C4.70452 47.0107 4.62185 47.032 4.53119 47.032C4.40852 47.032 4.29652 46.9893 4.19519 46.904C4.09385 46.8187 4.04319 46.7147 4.04319 46.592C4.04319 46.5227 4.05919 46.4533 4.09119 46.384L6.29919 41.64C6.34719 41.5333 6.41919 41.4533 6.51519 41.4C6.61652 41.3413 6.72319 41.312 6.83519 41.312C6.94719 41.312 7.05119 41.3413 7.14719 41.4C7.24852 41.4533 7.32319 41.5333 7.37119 41.64L9.58719 46.384ZM5.78719 44.88H7.89919L6.84319 42.504L5.78719 44.88ZM13.9776 41.584C14.063 41.4027 14.2043 41.312 14.4016 41.312C14.535 41.312 14.655 41.3547 14.7616 41.44C14.8683 41.5253 14.9216 41.632 14.9216 41.76C14.9216 41.8187 14.9056 41.8853 14.8736 41.96L12.6576 46.728C12.6096 46.8293 12.535 46.9093 12.4336 46.968C12.3376 47.0213 12.2336 47.048 12.1216 47.048C12.0096 47.048 11.903 47.0213 11.8016 46.968C11.7056 46.9093 11.6336 46.8293 11.5856 46.728L9.37763 41.96C9.34563 41.8853 9.32963 41.8213 9.32963 41.768C9.32963 41.6347 9.38296 41.5253 9.48963 41.44C9.60163 41.3547 9.72696 41.312 9.86563 41.312C9.95629 41.312 10.039 41.336 10.1136 41.384C10.1936 41.4267 10.255 41.4933 10.2976 41.584L12.1376 45.672L13.9776 41.584ZM20.1575 46.384C20.1895 46.4533 20.2055 46.5227 20.2055 46.592C20.2055 46.7147 20.1548 46.8187 20.0535 46.904C19.9575 46.9893 19.8455 47.032 19.7175 47.032C19.6322 47.032 19.5522 47.0107 19.4775 46.968C19.4028 46.92 19.3442 46.848 19.3015 46.752L18.8215 45.68H16.0055L15.5255 46.752C15.4828 46.848 15.4242 46.92 15.3495 46.968C15.2748 47.0107 15.1922 47.032 15.1015 47.032C14.9788 47.032 14.8668 46.9893 14.7655 46.904C14.6642 46.8187 14.6135 46.7147 14.6135 46.592C14.6135 46.5227 14.6295 46.4533 14.6615 46.384L16.8695 41.64C16.9175 41.5333 16.9895 41.4533 17.0855 41.4C17.1868 41.3413 17.2935 41.312 17.4055 41.312C17.5175 41.312 17.6215 41.3413 17.7175 41.4C17.8188 41.4533 17.8935 41.5333 17.9415 41.64L20.1575 46.384ZM16.3575 44.88H18.4695L17.4135 42.504L16.3575 44.88ZM25.255 41.32C25.4043 41.32 25.5217 41.368 25.607 41.464C25.6977 41.5547 25.743 41.6773 25.743 41.832V46.528C25.743 46.6827 25.6977 46.808 25.607 46.904C25.5163 47 25.399 47.048 25.255 47.048C25.0843 47.048 24.9537 46.9867 24.863 46.864L21.943 43.064V46.528C21.943 46.6827 21.9003 46.808 21.815 46.904C21.7297 47 21.6123 47.048 21.463 47.048C21.3137 47.048 21.1963 47 21.111 46.904C21.0257 46.808 20.983 46.6827 20.983 46.528V41.832C20.983 41.6773 21.0283 41.5547 21.119 41.464C21.2097 41.368 21.3297 41.32 21.479 41.32C21.6443 41.32 21.7723 41.3813 21.863 41.504L24.775 45.288V41.832C24.775 41.6773 24.8177 41.5547 24.903 41.464C24.9937 41.368 25.111 41.32 25.255 41.32ZM31.6514 47.072C31.1074 47.072 30.6301 46.9547 30.2194 46.72C29.8141 46.4853 29.5021 46.1493 29.2834 45.712C29.0648 45.2747 28.9554 44.7627 28.9554 44.176C28.9554 43.5893 29.0648 43.08 29.2834 42.648C29.5021 42.2107 29.8141 41.8747 30.2194 41.64C30.6301 41.4053 31.1074 41.288 31.6514 41.288C32.0034 41.288 32.3341 41.3413 32.6434 41.448C32.9528 41.5493 33.2274 41.6987 33.4674 41.896C33.5368 41.9493 33.5848 42.0053 33.6114 42.064C33.6381 42.1227 33.6514 42.1947 33.6514 42.28C33.6514 42.3973 33.6194 42.496 33.5554 42.576C33.4914 42.656 33.4141 42.696 33.3234 42.696C33.2168 42.696 33.1074 42.6587 32.9954 42.584C32.7661 42.4133 32.5528 42.296 32.3554 42.232C32.1581 42.1627 31.9394 42.128 31.6994 42.128C31.1448 42.128 30.7234 42.3013 30.4354 42.648C30.1528 42.9947 30.0114 43.504 30.0114 44.176C30.0114 44.8533 30.1528 45.3653 30.4354 45.712C30.7234 46.0587 31.1448 46.232 31.6994 46.232C31.9288 46.232 32.1394 46.1973 32.3314 46.128C32.5288 46.0587 32.7501 45.9413 32.9954 45.776C33.0488 45.744 33.1021 45.7173 33.1554 45.696C33.2088 45.6747 33.2648 45.664 33.3234 45.664C33.4141 45.664 33.4914 45.704 33.5554 45.784C33.6194 45.864 33.6514 45.9627 33.6514 46.08C33.6514 46.16 33.6381 46.232 33.6114 46.296C33.5848 46.3547 33.5368 46.4107 33.4674 46.464C33.2274 46.6613 32.9528 46.8133 32.6434 46.92C32.3341 47.0213 32.0034 47.072 31.6514 47.072ZM35.0653 47.048C34.9106 47.048 34.7853 47 34.6893 46.904C34.5986 46.808 34.5533 46.6827 34.5533 46.528V41.832C34.5533 41.6773 34.5986 41.5547 34.6893 41.464C34.7853 41.368 34.9106 41.32 35.0653 41.32C35.2253 41.32 35.3506 41.368 35.4413 41.464C35.5373 41.5547 35.5853 41.6773 35.5853 41.832V46.528C35.5853 46.6827 35.5373 46.808 35.4413 46.904C35.3506 47 35.2253 47.048 35.0653 47.048ZM37.3153 47.048C37.1606 47.048 37.0353 47.0027 36.9393 46.912C36.8486 46.816 36.8033 46.688 36.8033 46.528V41.848C36.8033 41.6933 36.846 41.5733 36.9313 41.488C37.022 41.4027 37.1446 41.36 37.2993 41.36H39.2673C39.87 41.36 40.3393 41.512 40.6753 41.816C41.0113 42.1147 41.1793 42.536 41.1793 43.08C41.1793 43.624 41.0113 44.048 40.6753 44.352C40.3393 44.656 39.87 44.808 39.2673 44.808H37.8353V46.528C37.8353 46.688 37.7873 46.816 37.6913 46.912C37.6006 47.0027 37.4753 47.048 37.3153 47.048ZM39.1393 44.016C39.8486 44.016 40.2033 43.7067 40.2033 43.088C40.2033 42.4693 39.8486 42.16 39.1393 42.16H37.8353V44.016H39.1393ZM43.7998 47.04C43.6398 47.04 43.5118 46.9947 43.4158 46.904C43.3251 46.808 43.2798 46.6827 43.2798 46.528V42.208H41.8238C41.5038 42.208 41.3438 42.0667 41.3438 41.784C41.3438 41.5013 41.5038 41.36 41.8238 41.36H45.7678C46.0878 41.36 46.2478 41.5013 46.2478 41.784C46.2478 42.0667 46.0878 42.208 45.7678 42.208H44.3118V46.528C44.3118 46.6827 44.2638 46.808 44.1678 46.904C44.0771 46.9947 43.9544 47.04 43.7998 47.04ZM51.2747 46.384C51.3067 46.4533 51.3227 46.5227 51.3227 46.592C51.3227 46.7147 51.272 46.8187 51.1707 46.904C51.0747 46.9893 50.9627 47.032 50.8347 47.032C50.7494 47.032 50.6694 47.0107 50.5947 46.968C50.52 46.92 50.4614 46.848 50.4187 46.752L49.9387 45.68H47.1227L46.6427 46.752C46.6 46.848 46.5414 46.92 46.4667 46.968C46.392 47.0107 46.3094 47.032 46.2187 47.032C46.096 47.032 45.984 46.9893 45.8827 46.904C45.7814 46.8187 45.7307 46.7147 45.7307 46.592C45.7307 46.5227 45.7467 46.4533 45.7787 46.384L47.9867 41.64C48.0347 41.5333 48.1067 41.4533 48.2027 41.4C48.304 41.3413 48.4107 41.312 48.5227 41.312C48.6347 41.312 48.7387 41.3413 48.8347 41.4C48.936 41.4533 49.0107 41.5333 49.0587 41.64L51.2747 46.384ZM47.4747 44.88H49.5867L48.5307 42.504L47.4747 44.88ZM56.2241 47.072C55.8134 47.072 55.4241 47.0187 55.0561 46.912C54.6934 46.8 54.3974 46.6507 54.1681 46.464C54.0454 46.3733 53.9841 46.2453 53.9841 46.08C53.9841 45.968 54.0161 45.872 54.0801 45.792C54.1494 45.7067 54.2294 45.664 54.3201 45.664C54.4161 45.664 54.5254 45.7013 54.6481 45.776C54.8774 45.9413 55.1174 46.0613 55.3681 46.136C55.6187 46.2107 55.8961 46.248 56.2001 46.248C56.5894 46.248 56.8881 46.1813 57.0961 46.048C57.3041 45.9093 57.4081 45.7093 57.4081 45.448C57.4081 45.2453 57.3094 45.0907 57.1121 44.984C56.9201 44.872 56.5974 44.7653 56.1441 44.664C55.6747 44.5627 55.2934 44.4453 55.0001 44.312C54.7067 44.1787 54.4854 44.008 54.3361 43.8C54.1867 43.592 54.1121 43.328 54.1121 43.008C54.1121 42.6773 54.2054 42.3813 54.3921 42.12C54.5787 41.8587 54.8374 41.656 55.1681 41.512C55.5041 41.3627 55.8801 41.288 56.2961 41.288C57.0587 41.288 57.6801 41.4907 58.1601 41.896C58.2294 41.9547 58.2774 42.0133 58.3041 42.072C58.3361 42.1253 58.3521 42.1947 58.3521 42.28C58.3521 42.392 58.3174 42.4907 58.2481 42.576C58.1841 42.656 58.1067 42.696 58.0161 42.696C57.9627 42.696 57.9121 42.688 57.8641 42.672C57.8214 42.656 57.7627 42.6267 57.6881 42.584C57.4694 42.424 57.2561 42.3067 57.0481 42.232C56.8454 42.152 56.5947 42.112 56.2961 42.112C55.9334 42.112 55.6454 42.1867 55.4321 42.336C55.2241 42.48 55.1201 42.6827 55.1201 42.944C55.1201 43.1627 55.2134 43.3307 55.4001 43.448C55.5867 43.5653 55.9041 43.6747 56.3521 43.776C56.8267 43.8827 57.2107 44.0027 57.5041 44.136C57.8027 44.264 58.0294 44.4293 58.1841 44.632C58.3441 44.8347 58.4241 45.088 58.4241 45.392C58.4241 45.7227 58.3307 46.016 58.1441 46.272C57.9627 46.5227 57.7041 46.72 57.3681 46.864C57.0374 47.0027 56.6561 47.072 56.2241 47.072ZM61.8856 47.072C61.3363 47.072 60.859 46.9547 60.4536 46.72C60.0536 46.4853 59.7443 46.1493 59.5256 45.712C59.307 45.2747 59.1976 44.7627 59.1976 44.176C59.1976 43.5893 59.3043 43.08 59.5176 42.648C59.7363 42.2107 60.0483 41.8747 60.4536 41.64C60.859 41.4053 61.3363 41.288 61.8856 41.288C62.435 41.288 62.9096 41.4053 63.3096 41.64C63.715 41.8747 64.0243 42.2107 64.2376 42.648C64.4563 43.08 64.5656 43.5893 64.5656 44.176C64.5656 44.7627 64.4563 45.2747 64.2376 45.712C64.019 46.1493 63.707 46.4853 63.3016 46.72C62.9016 46.9547 62.4296 47.072 61.8856 47.072ZM61.8856 46.248C62.403 46.248 62.8056 46.0693 63.0936 45.712C63.387 45.3547 63.5336 44.8427 63.5336 44.176C63.5336 43.5093 63.387 43 63.0936 42.648C62.8056 42.2907 62.403 42.112 61.8856 42.112C61.363 42.112 60.955 42.2907 60.6616 42.648C60.3736 43 60.2296 43.5093 60.2296 44.176C60.2296 44.8427 60.3736 45.3547 60.6616 45.712C60.955 46.0693 61.363 46.248 61.8856 46.248ZM66.096 47C65.9413 47 65.8213 46.9573 65.736 46.872C65.6507 46.7867 65.608 46.6693 65.608 46.52V41.832C65.608 41.6773 65.6533 41.5547 65.744 41.464C65.84 41.368 65.9653 41.32 66.12 41.32C66.28 41.32 66.4053 41.368 66.496 41.464C66.592 41.5547 66.64 41.6773 66.64 41.832V46.152H68.888C69.208 46.152 69.368 46.2933 69.368 46.576C69.368 46.8587 69.208 47 68.888 47H66.096ZM72.1469 47.072C71.3736 47.072 70.7869 46.872 70.3869 46.472C69.9869 46.072 69.7869 45.488 69.7869 44.72V41.832C69.7869 41.6773 69.8323 41.5547 69.9229 41.464C70.0136 41.368 70.1363 41.32 70.2909 41.32C70.4456 41.32 70.5683 41.368 70.6589 41.464C70.7496 41.5547 70.7949 41.6773 70.7949 41.832V44.776C70.7949 45.2613 70.9096 45.6293 71.1389 45.88C71.3683 46.1253 71.7043 46.248 72.1469 46.248C72.5843 46.248 72.9176 46.1227 73.1469 45.872C73.3763 45.6213 73.4909 45.256 73.4909 44.776V41.832C73.4909 41.6773 73.5363 41.5547 73.6269 41.464C73.7176 41.368 73.8403 41.32 73.9949 41.32C74.1496 41.32 74.2723 41.368 74.3629 41.464C74.4536 41.5547 74.4989 41.6773 74.4989 41.832V44.72C74.4989 45.4827 74.2989 46.0667 73.8989 46.472C73.4989 46.872 72.9149 47.072 72.1469 47.072ZM77.6381 47.072C77.2275 47.072 76.8381 47.0187 76.4701 46.912C76.1075 46.8 75.8115 46.6507 75.5821 46.464C75.4595 46.3733 75.3981 46.2453 75.3981 46.08C75.3981 45.968 75.4301 45.872 75.4941 45.792C75.5635 45.7067 75.6435 45.664 75.7341 45.664C75.8301 45.664 75.9395 45.7013 76.0621 45.776C76.2915 45.9413 76.5315 46.0613 76.7821 46.136C77.0328 46.2107 77.3101 46.248 77.6141 46.248C78.0035 46.248 78.3021 46.1813 78.5101 46.048C78.7181 45.9093 78.8221 45.7093 78.8221 45.448C78.8221 45.2453 78.7235 45.0907 78.5261 44.984C78.3341 44.872 78.0115 44.7653 77.5581 44.664C77.0888 44.5627 76.7075 44.4453 76.4141 44.312C76.1208 44.1787 75.8995 44.008 75.7501 43.8C75.6008 43.592 75.5261 43.328 75.5261 43.008C75.5261 42.6773 75.6195 42.3813 75.8061 42.12C75.9928 41.8587 76.2515 41.656 76.5821 41.512C76.9181 41.3627 77.2941 41.288 77.7101 41.288C78.4728 41.288 79.0941 41.4907 79.5741 41.896C79.6435 41.9547 79.6915 42.0133 79.7181 42.072C79.7501 42.1253 79.7661 42.1947 79.7661 42.28C79.7661 42.392 79.7315 42.4907 79.6621 42.576C79.5981 42.656 79.5208 42.696 79.4301 42.696C79.3768 42.696 79.3261 42.688 79.2781 42.672C79.2355 42.656 79.1768 42.6267 79.1021 42.584C78.8835 42.424 78.6701 42.3067 78.4621 42.232C78.2595 42.152 78.0088 42.112 77.7101 42.112C77.3475 42.112 77.0595 42.1867 76.8461 42.336C76.6381 42.48 76.5341 42.6827 76.5341 42.944C76.5341 43.1627 76.6275 43.3307 76.8141 43.448C77.0008 43.5653 77.3181 43.6747 77.7661 43.776C78.2408 43.8827 78.6248 44.0027 78.9181 44.136C79.2168 44.264 79.4435 44.4293 79.5981 44.632C79.7581 44.8347 79.8381 45.088 79.8381 45.392C79.8381 45.7227 79.7448 46.016 79.5581 46.272C79.3768 46.5227 79.1181 46.72 78.7821 46.864C78.4515 47.0027 78.0701 47.072 77.6381 47.072ZM81.2997 47.048C81.145 47.048 81.0197 47 80.9237 46.904C80.833 46.808 80.7877 46.6827 80.7877 46.528V41.832C80.7877 41.6773 80.833 41.5547 80.9237 41.464C81.0197 41.368 81.145 41.32 81.2997 41.32C81.4597 41.32 81.585 41.368 81.6757 41.464C81.7717 41.5547 81.8197 41.6773 81.8197 41.832V46.528C81.8197 46.6827 81.7717 46.808 81.6757 46.904C81.585 47 81.4597 47.048 81.2997 47.048Z"
        fill="white" />
</svg>